
<svg viewBox="0 0 24 24" xmlns="http://www.w3.org/2000/svg">
    <path fill-rule="evenodd" d="M5,21 L3,21 L3,9.00000003 L5,9.00000003 L5,10 L6.38200001,10 L8.07400002,6.61600002 L9.27900003,3 L13,3 C14.103,3 15,3.897 15,5 L14.97,6.24300001 L14.281,9 L19,9 C20.1030001,9 21,9.89700003 21,11 L20.9860001,11.165 L19.9510001,17.3760001 L17.5350001,21 L8.76400002,21 L6.76400002,20 L5,20 L5,21 Z M13,5 L10.721,5 L9.89500003,7.44700002 L7.61800002,12 L5,12 L5,18 L7.23600002,18 L9.23600003,19 L16.4650001,19 L18.0490001,16.6240001 L18.9860001,11 L11.718,11 L13,5.87700001 L13,5 Z"></path>
</svg>